<?xml version="1.0" encoding="UTF-8"?>
<svg xmlns="http://www.w3.org/2000/svg" version="1.1" viewBox="0 0 841.89 595.28">
  <defs>
    <style>
      .cls-1, .cls-2 {
        fill: #24b6c9;
      }

      .cls-3 {
        fill: #3c3b8f;
      }

      .cls-2 {
        font-family: Montserrat-Regular, Montserrat;
        font-size: 47.1px;
        letter-spacing: .14em;
      }
    </style>
  </defs>
  <!-- Generator: Adobe Illustrator 28.7.5, SVG Export Plug-In . SVG Version: 1.2.0 Build 176)  -->
  <g>
    <g id="Camada_1">
      <g>
        <g>
          <g>
            <path class="cls-3" d="M112.18,389.62c0,2.69,2.77,4.44,5.22,3.35,3.14-1.41,6.68-2.16,10.48-2.16,13.89,0,24.52,10.26,24.52,25.65,0,15.39-10.64,25.65-24.52,25.65-3.8,0-7.34-.75-10.48-2.16-2.45-1.1-5.22.66-5.22,3.35v.15c0,1.4.79,2.67,2.04,3.3,4.21,2.14,9.05,3.24,14.29,3.24,18.77,0,32.78-13.64,32.78-33.53,0-19.89-14.01-33.41-32.78-33.41-5.22,0-10.06,1.11-14.29,3.27-1.24.63-2.04,1.9-2.04,3.3h0Z"/>
            <path class="cls-3" d="M172.2,416.99c0-20.28,14.82-34.7,34.83-34.7s34.7,14.43,34.7,34.7-14.69,34.83-34.7,34.83-34.83-14.56-34.83-34.83ZM232.37,416.99c0-15.99-10.79-26.65-25.34-26.65s-25.48,10.66-25.48,26.65,10.92,26.64,25.48,26.64,25.34-10.66,25.34-26.64Z"/>
            <path class="cls-3" d="M265.19,354.73h0c2.55,0,4.61,2.07,4.61,4.61v87.22c0,2.55-2.07,4.61-4.61,4.61h0c-2.55,0-4.61-2.07-4.61-4.61v-87.22c0-2.55,2.07-4.61,4.61-4.61Z"/>
            <path class="cls-3" d="M102.73,352.25h0c2.55,0,4.61,2.16,4.61,4.83v91.32c0,2.67-2.07,4.83-4.61,4.83h0c-2.55,0-4.61-2.16-4.61-4.83v-91.32c0-2.67,2.07-4.83,4.61-4.83Z"/>
            <path class="cls-3" d="M347.13,409.28c0,13.17,0,29.73,0,37.5,0,2.44-1.98,4.4-4.42,4.4h0c-2.44,0-4.42-1.98-4.42-4.42v-6.24c-4.16,7.02-12.22,11.31-23.53,11.31-15.47,0-24.96-8.06-24.96-19.89,0-10.53,6.76-19.37,26.39-19.37h21.71v-4.16c0-11.7-6.63-18.07-19.37-18.07-7.26,0-14.17,2.11-19.5,5.59-1.87,1.22-4.38.59-5.53-1.32h0c-1.09-1.81-.62-4.19,1.14-5.37,7.03-4.69,16.46-7.23,26.33-6.94,14.57.43,26.16,12.39,26.16,26.97ZM337.9,430.64v-11.18h-21.45c-13.26,0-17.55,5.2-17.55,12.22,0,7.93,6.37,12.87,17.29,12.87s18.07-4.94,21.71-13.91Z"/>
          </g>
          <path class="cls-1" d="M376.94,413.18h25.99c2.23,0,4.03,1.8,4.03,4.03h0c0,2.23-1.8,4.03-4.03,4.03h-25.99c-2.23,0-4.03-1.8-4.03-4.03h0c0-2.23,1.8-4.03,4.03-4.03Z"/>
          <g>
            <path class="cls-3" d="M437.36,352.25h0c2.55,0,4.61,2.16,4.61,4.83v91.32c0,2.67-2.07,4.83-4.61,4.83h0c-2.55,0-4.61-2.16-4.61-4.83v-91.32c0-2.67,2.07-4.83,4.61-4.83Z"/>
            <path class="cls-3" d="M446.57,389.62c0,2.69,2.77,4.44,5.22,3.35,3.14-1.41,6.68-2.16,10.48-2.16,13.89,0,24.52,10.26,24.52,25.65,0,15.39-10.64,25.65-24.52,25.65-3.8,0-7.34-.75-10.48-2.16-2.45-1.1-5.22.66-5.22,3.35v.15c0,1.4.79,2.67,2.04,3.3,4.21,2.14,9.05,3.24,14.29,3.24,18.77,0,32.78-13.64,32.78-33.53,0-19.89-14.01-33.41-32.78-33.41-5.22,0-10.06,1.11-14.29,3.27-1.24.63-2.04,1.9-2.04,3.3h0Z"/>
            <path class="cls-3" d="M565.08,409.29v37.47c0,2.44-1.98,4.42-4.42,4.42h0c-2.44,0-4.42-1.98-4.42-4.42v-6.24c-4.16,7.02-12.22,11.31-23.53,11.31-15.47,0-24.96-8.06-24.96-19.89,0-10.53,6.76-19.37,26.39-19.37h21.71v-4.16c0-11.7-6.63-18.07-19.37-18.07-7.26,0-14.17,2.11-19.5,5.59-1.87,1.22-4.38.59-5.53-1.32h0c-1.09-1.81-.62-4.19,1.14-5.37,7.03-4.69,16.45-7.23,26.31-6.94,14.58.43,26.18,12.39,26.18,26.98ZM555.85,430.64v-11.18h-21.45c-13.26,0-17.55,5.2-17.55,12.22,0,7.93,6.37,12.87,17.29,12.87s18.07-4.94,21.71-13.91Z"/>
            <path class="cls-3" d="M620.04,382.48l-.92.14h0s-.05,0-.08.01l-1.46.22s0,.02,0,.03c-8.84,1.51-15.15,6.01-18.59,13.3v-8.97c0-2.44-1.98-4.42-4.42-4.42s-4.42,1.98-4.42,4.42v59.34c0,2.55,2.07,4.61,4.61,4.61s4.61-2.07,4.61-4.61v-30.22c-.05-.71-.84-13.34,7.67-20.13,2.89-2.3,7.46-4.41,12.5-4.95l.66-.07c2.67,0,4.38-1.75,4.38-4.3s-1.89-4.42-4.56-4.42Z"/>
            <path class="cls-3" d="M671.11,382.48l-.92.14h0s-.05,0-.08.01l-1.46.22s0,.02,0,.03c-8.84,1.51-15.15,6.01-18.59,13.3v-8.97c0-2.44-1.98-4.42-4.42-4.42s-4.42,1.98-4.42,4.42v59.34c0,2.55,2.07,4.61,4.61,4.61s4.61-2.07,4.61-4.61v-30.22c-.05-.71-.84-13.34,7.67-20.13,2.89-2.3,7.46-4.41,12.5-4.95l.66-.07c2.67,0,4.38-1.75,4.38-4.3s-1.89-4.42-4.56-4.42Z"/>
            <path class="cls-3" d="M743.78,409.29v37.47c0,2.44-1.98,4.42-4.42,4.42h0c-2.44,0-4.42-1.98-4.42-4.42v-6.24c-4.16,7.02-12.22,11.31-23.53,11.31-15.47,0-24.96-8.06-24.96-19.89,0-10.53,6.76-19.37,26.39-19.37h21.71v-4.16c0-11.7-6.63-18.07-19.37-18.07-7.26,0-14.17,2.11-19.5,5.59-1.87,1.22-4.38.59-5.53-1.32h0c-1.09-1.81-.62-4.19,1.14-5.37,7.03-4.69,16.45-7.23,26.31-6.94,14.58.43,26.18,12.39,26.18,26.98ZM734.55,430.64v-11.18h-21.45c-13.26,0-17.55,5.2-17.55,12.22,0,7.93,6.37,12.87,17.29,12.87s18.07-4.94,21.71-13.91Z"/>
          </g>
        </g>
        <g>
          <rect class="cls-3" x="311.06" y="154.58" width="186.7" height="15.25" rx="5.44" ry="5.44" transform="translate(-31.09 148.1) rotate(-20)"/>
          <path class="cls-1" d="M394.1,135.34c3.73-1.36,4.76-6.08,2-8.93-3.54-3.65-6.37-8.18-8.28-13.44-7.01-19.26,1.85-39.18,23.19-46.94,21.34-7.77,40.93,1.8,47.94,21.06,1.92,5.27,2.66,10.56,2.29,15.62-.28,3.96,3.55,6.91,7.28,5.56l.21-.08c1.94-.71,3.3-2.45,3.55-4.5.84-6.91-.07-14.18-2.72-21.45-9.47-26.02-35.45-38.57-63.03-28.53-27.58,10.04-39.25,36.29-29.77,62.31,2.63,7.23,6.62,13.39,11.75,18.17,1.51,1.4,3.67,1.86,5.61,1.16h0Z"/>
          <path class="cls-1" d="M451.97,209.98c-3.73,1.36-4.76,6.08-2,8.93,3.54,3.65,6.37,8.18,8.28,13.44,7.01,19.26-1.85,39.18-23.19,46.94-21.34,7.77-40.93-1.8-47.94-21.06-1.92-5.27-2.66-10.56-2.29-15.62.28-3.96-3.55-6.91-7.28-5.56l-.21.08c-1.94.71-3.3,2.45-3.55,4.5-.84,6.91.07,14.18,2.72,21.45,9.47,26.02,35.45,38.57,63.03,28.53,27.58-10.04,39.25-36.29,29.77-62.31-2.63-7.23-6.62-13.39-11.75-18.17-1.51-1.4-3.67-1.86-5.61-1.16h0Z"/>
          <rect class="cls-3" x="344.13" y="176.2" width="186.7" height="15.25" rx="5.44" ry="5.44" transform="translate(-36.49 160.71) rotate(-20)"/>
        </g>
        <text class="cls-2" transform="translate(296.68 532.69)"><tspan x="0" y="0">SISTEMA</tspan></text>
      </g>
    </g>
  </g>
</svg>