<?xml version="1.0" encoding="UTF-8"?>
<svg xmlns="http://www.w3.org/2000/svg" version="1.1" viewBox="0 0 841.89 595.28">
  <defs>
    <style>
      .cls-1, .cls-2 {
        fill: #24b6c9;
      }

      .cls-3 {
        fill: #3c3b8f;
      }

      .cls-2 {
        font-family: Montserrat-Medium, Montserrat;
        font-size: 41.69px;
        font-weight: 500;
        letter-spacing: .14em;
      }
    </style>
  </defs>
  <!-- Generator: Adobe Illustrator 28.7.5, SVG Export Plug-In . SVG Version: 1.2.0 Build 176)  -->
  <g>
    <g id="Camada_1">
      <g>
        <g>
          <rect class="cls-3" x="12.03" y="275.47" width="229" height="18.7" rx="6.67" ry="6.67" transform="translate(-89.78 60.45) rotate(-20)"/>
          <path class="cls-1" d="M113.88,251.86c4.57-1.66,5.84-7.46,2.46-10.96-4.34-4.48-7.81-10.03-10.16-16.49-8.6-23.62,2.27-48.05,28.44-57.58,26.17-9.53,50.2,2.21,58.8,25.83,2.35,6.46,3.26,12.95,2.81,19.16-.35,4.85,4.35,8.48,8.92,6.81l.26-.09c2.38-.87,4.05-3,4.35-5.52,1.03-8.48-.09-17.39-3.33-26.31-11.62-31.92-43.48-47.31-77.31-34.99-33.83,12.31-48.14,44.51-36.52,76.42,3.23,8.87,8.12,16.42,14.41,22.28,1.85,1.72,4.5,2.29,6.88,1.42h0Z"/>
          <path class="cls-1" d="M184.86,343.42c-4.57,1.66-5.84,7.46-2.46,10.96,4.34,4.48,7.81,10.03,10.16,16.49,8.6,23.62-2.27,48.05-28.44,57.58-26.17,9.53-50.2-2.21-58.8-25.83-2.35-6.46-3.26-12.95-2.81-19.16.35-4.85-4.35-8.48-8.92-6.81l-.26.09c-2.38.87-4.05,3-4.35,5.52-1.03,8.48.09,17.39,3.33,26.31,11.62,31.92,43.48,47.31,77.31,34.99,33.83-12.31,48.14-44.51,36.52-76.42-3.23-8.87-8.12-16.42-14.41-22.28-1.85-1.72-4.5-2.29-6.88-1.42h0Z"/>
          <rect class="cls-3" x="52.58" y="301.97" width="229" height="18.7" rx="6.67" ry="6.67" transform="translate(-96.4 75.92) rotate(-20)"/>
        </g>
        <g>
          <g>
            <g>
              <path class="cls-3" d="M357.74,244.04c0,3.48,3.58,5.75,6.76,4.33,4.07-1.82,8.64-2.79,13.56-2.79,17.96,0,31.72,13.27,31.72,33.18,0,19.9-13.76,33.18-31.72,33.18-4.91,0-9.49-.98-13.56-2.79-3.17-1.42-6.76.85-6.76,4.33v.2c0,1.81,1.03,3.45,2.64,4.27,5.44,2.77,11.7,4.19,18.48,4.19,24.27,0,42.4-17.64,42.4-43.37,0-25.73-18.13-43.21-42.4-43.21-6.75,0-13.02,1.44-18.49,4.23-1.61.82-2.64,2.46-2.64,4.27h0Z"/>
              <path class="cls-3" d="M435.37,279.45c0-26.23,19.16-44.89,45.05-44.89s44.89,18.66,44.89,44.89-19,45.05-44.89,45.05-45.05-18.83-45.05-45.05ZM513.2,279.45c0-20.68-13.95-34.47-32.78-34.47s-32.95,13.79-32.95,34.47,14.12,34.46,32.95,34.46,32.78-13.78,32.78-34.46Z"/>
              <path class="cls-3" d="M555.64,198.92h0c3.3,0,5.97,2.67,5.97,5.97v112.81c0,3.3-2.67,5.97-5.97,5.97h0c-3.3,0-5.97-2.67-5.97-5.97v-112.81c0-3.3,2.67-5.97,5.97-5.97Z"/>
              <path class="cls-3" d="M345.51,195.7h0c3.3,0,5.97,2.8,5.97,6.25v118.11c0,3.45-2.67,6.25-5.97,6.25h0c-3.3,0-5.97-2.8-5.97-6.25v-118.11c0-3.45,2.67-6.25,5.97-6.25Z"/>
              <path class="cls-3" d="M661.63,269.47c0,17.04,0,38.46,0,48.5,0,3.16-2.56,5.69-5.72,5.69h0c-3.16,0-5.72-2.56-5.72-5.72v-8.07c-5.38,9.08-15.8,14.63-30.43,14.63-20.01,0-32.28-10.42-32.28-25.72,0-13.62,8.74-25.05,34.13-25.05h28.08v-5.38c0-15.13-8.58-23.37-25.05-23.37-9.39,0-18.33,2.72-25.23,7.24-2.41,1.58-5.66.76-7.15-1.71h0c-1.41-2.34-.8-5.42,1.47-6.94,9.1-6.06,21.29-9.35,34.05-8.98,18.85.55,33.84,16.02,33.84,34.88ZM649.7,297.1v-14.46h-27.74c-17.15,0-22.7,6.73-22.7,15.8,0,10.25,8.24,16.64,22.36,16.64s23.37-6.39,28.08-17.99Z"/>
            </g>
            <path class="cls-1" d="M696.64,273.73h33.62c2.88,0,5.21,2.33,5.21,5.21h0c0,2.88-2.33,5.21-5.21,5.21h-33.62c-2.88,0-5.21-2.33-5.21-5.21h0c0-2.88,2.33-5.21,5.21-5.21Z"/>
            <g>
              <path class="cls-3" d="M427.95,322.12h0c3.3,0,5.97,2.8,5.97,6.25v118.11c0,3.45-2.67,6.25-5.97,6.25h0c-3.3,0-5.97-2.8-5.97-6.25v-118.11c0-3.45,2.67-6.25,5.97-6.25Z"/>
              <path class="cls-3" d="M439.86,370.45c0,3.48,3.58,5.75,6.76,4.33,4.07-1.82,8.64-2.79,13.56-2.79,17.96,0,31.72,13.27,31.72,33.18,0,19.9-13.76,33.18-31.72,33.18-4.91,0-9.49-.98-13.56-2.79-3.17-1.42-6.76.85-6.76,4.33v.2c0,1.81,1.03,3.45,2.64,4.27,5.44,2.77,11.7,4.19,18.48,4.19,24.27,0,42.4-17.64,42.4-43.37,0-25.73-18.13-43.21-42.4-43.21-6.75,0-13.02,1.44-18.49,4.23-1.61.82-2.64,2.46-2.64,4.27h0Z"/>
              <path class="cls-3" d="M593.14,395.9v48.46c0,3.16-2.56,5.72-5.72,5.72h0c-3.16,0-5.72-2.56-5.72-5.72v-8.07c-5.38,9.08-15.8,14.63-30.43,14.63-20.01,0-32.28-10.42-32.28-25.72,0-13.62,8.74-25.05,34.13-25.05h28.08v-5.38c0-15.13-8.58-23.37-25.05-23.37-9.39,0-18.33,2.72-25.23,7.24-2.41,1.58-5.66.76-7.15-1.71h0c-1.41-2.34-.8-5.42,1.47-6.94,9.09-6.06,21.28-9.35,34.03-8.98,18.86.55,33.86,16.03,33.86,34.89ZM581.21,423.51v-14.46h-27.74c-17.15,0-22.7,6.73-22.7,15.8,0,10.25,8.24,16.64,22.36,16.64s23.37-6.39,28.08-17.99Z"/>
              <path class="cls-3" d="M664.23,361.22l-1.19.18h0s-.07.01-.1.02l-1.89.29s0,.03,0,.05c-11.44,1.96-19.6,7.78-24.05,17.21v-11.6c0-3.16-2.56-5.71-5.71-5.71s-5.71,2.56-5.71,5.71v76.75c0,3.3,2.67,5.97,5.97,5.97s5.97-2.67,5.97-5.97v-39.09c-.07-.92-1.09-17.26,9.92-26.04,3.74-2.98,9.65-5.7,16.17-6.4l.86-.09c3.45,0,5.67-2.26,5.67-5.56s-2.44-5.72-5.9-5.72Z"/>
              <path class="cls-3" d="M730.3,361.22l-1.19.18h0s-.07.01-.1.02l-1.89.29s0,.03,0,.05c-11.44,1.96-19.6,7.78-24.05,17.21v-11.6c0-3.16-2.56-5.71-5.71-5.71s-5.71,2.56-5.71,5.71v76.75c0,3.3,2.67,5.97,5.97,5.97s5.97-2.67,5.97-5.97v-39.09c-.07-.92-1.09-17.26,9.92-26.04,3.74-2.98,9.65-5.7,16.17-6.4l.86-.09c3.45,0,5.67-2.26,5.67-5.56s-2.44-5.72-5.9-5.72Z"/>
              <path class="cls-3" d="M824.28,395.9v48.46c0,3.16-2.56,5.72-5.72,5.72h0c-3.16,0-5.72-2.56-5.72-5.72v-8.07c-5.38,9.08-15.8,14.63-30.43,14.63-20.01,0-32.28-10.42-32.28-25.72,0-13.62,8.74-25.05,34.13-25.05h28.08v-5.38c0-15.13-8.58-23.37-25.05-23.37-9.39,0-18.33,2.72-25.23,7.24-2.41,1.58-5.66.76-7.15-1.71h0c-1.41-2.34-.8-5.42,1.47-6.94,9.09-6.06,21.28-9.35,34.03-8.98,18.86.55,33.86,16.03,33.86,34.89ZM812.34,423.51v-14.46h-27.74c-17.15,0-22.7,6.73-22.7,15.8,0,10.25,8.24,16.64,22.36,16.64s23.37-6.39,28.08-17.99Z"/>
            </g>
          </g>
          <text class="cls-2" transform="translate(339.55 177.98)"><tspan x="0" y="0">SISTEMA</tspan></text>
        </g>
      </g>
    </g>
  </g>
</svg>