<svg version="1.1" viewBox="0.0 0.0 960.0 540.0" fill="none" stroke="none" stroke-linecap="square" stroke-miterlimit="10" xmlns:xlink="http://www.w3.org/1999/xlink" xmlns="http://www.w3.org/2000/svg"><clipPath id="g3643e4bfb59_0_0.0"><path d="m0 0l960.0 0l0 540.0l-960.0 0l0 -540.0z" clip-rule="nonzero"/></clipPath><g clip-path="url(#g3643e4bfb59_0_0.0)"><path fill="#ffffff" d="m0 0l960.0 0l0 540.0l-960.0 0z" fill-rule="evenodd"/><path fill="#000000" fill-opacity="0.0" d="m274.21127 389.74673c83.332184 0 125.97241 -81.38385 166.66434 -162.76767c40.691925 -81.38385 79.435486 -162.76767 158.87103 -162.76767" fill-rule="evenodd"/><path stroke="#25b5c8" stroke-width="32.26509186351706" stroke-linejoin="round" stroke-linecap="butt" d="m274.21127 389.74673c83.332184 0 125.97241 -81.38385 166.66434 -162.76767c40.691925 -81.38385 79.435486 -162.76767 158.87103 -162.76767" fill-rule="evenodd"/><path fill="#000000" fill-opacity="0.0" d="m295.72168 411.25714c83.332184 0 125.97241 -81.38385 166.66434 -162.76768c40.691925 -81.383835 79.43552 -162.76767 158.871 -162.76767" fill-rule="evenodd"/><path stroke="#53cfdf" stroke-width="32.26509186351706" stroke-linejoin="round" stroke-linecap="butt" d="m295.72168 411.25714c83.332184 0 125.97241 -81.38385 166.66434 -162.76768c40.691925 -81.383835 79.43552 -162.76767 158.871 -162.76767" fill-rule="evenodd"/><path fill="#000000" fill-opacity="0.0" d="m317.2321 432.76752c83.33215 0 125.97241 -81.38382 166.66434 -162.76767c40.691895 -81.38382 79.435486 -162.76767 158.87103 -162.76767" fill-rule="evenodd"/><path stroke="#477ac7" stroke-width="32.26509186351706" stroke-linejoin="round" stroke-linecap="butt" d="m317.2321 432.76752c83.33215 0 125.97241 -81.38382 166.66434 -162.76767c40.691895 -81.38382 79.435486 -162.76767 158.87103 -162.76767" fill-rule="evenodd"/><path fill="#000000" fill-opacity="0.0" d="m338.7425 454.27792c83.33215 0 125.97241 -81.38382 166.66434 -162.76767c40.691925 -81.383835 79.43552 -162.76767 158.871 -162.76767" fill-rule="evenodd"/><path stroke="#4d39b5" stroke-width="32.26509186351706" stroke-linejoin="round" stroke-linecap="butt" d="m338.7425 454.27792c83.33215 0 125.97241 -81.38382 166.66434 -162.76767c40.691925 -81.383835 79.43552 -162.76767 158.871 -162.76767" fill-rule="evenodd"/><path fill="#000000" fill-opacity="0.0" d="m360.2529 475.78833c83.33215 0 125.97241 -81.38385 166.66434 -162.76767c40.691895 -81.383835 79.435486 -162.76767 158.87097 -162.76767" fill-rule="evenodd"/><path stroke="#3b25ae" stroke-width="32.26509186351706" stroke-linejoin="round" stroke-linecap="butt" d="m360.2529 475.78833c83.33215 0 125.97241 -81.38385 166.66434 -162.76767c40.691895 -81.383835 79.435486 -162.76767 158.87097 -162.76767" fill-rule="evenodd"/></g></svg>